<svg width="512" height="512" viewBox="0 0 512 512" xmlns="http://www.w3.org/2000/svg">
  <defs>
    <linearGradient id="backgroundGradient" x1="0%" y1="0%" x2="100%" y2="100%">
      <stop offset="0%" style="stop-color:#F58D04;stop-opacity:1" />
      <stop offset="100%" style="stop-color:#FF6B35;stop-opacity:1" />
    </linearGradient>
    <linearGradient id="clockGradient" x1="0%" y1="0%" x2="100%" y2="100%">
      <stop offset="0%" style="stop-color:#FFFFFF;stop-opacity:1" />
      <stop offset="100%" style="stop-color:#F8F8F8;stop-opacity:1" />
    </linearGradient>
    <filter id="shadow" x="-50%" y="-50%" width="200%" height="200%">
      <feDropShadow dx="0" dy="4" stdDeviation="8" flood-color="#000000" flood-opacity="0.3"/>
    </filter>
  </defs>
  
  <!-- Background Circle -->
  <circle cx="256" cy="256" r="240" fill="url(#backgroundGradient)" filter="url(#shadow)"/>
  
  <!-- Inner Clock Face -->
  <circle cx="256" cy="256" r="180" fill="url(#clockGradient)" stroke="#E0E0E0" stroke-width="2"/>
  
  <!-- Clock Hour Markers -->
  <g stroke="#333" stroke-width="3" stroke-linecap="round">
    <!-- 12 o'clock -->
    <line x1="256" y1="86" x2="256" y2="106" stroke-width="4"/>
    <!-- 3 o'clock -->
    <line x1="426" y1="256" x2="406" y2="256" stroke-width="4"/>
    <!-- 6 o'clock -->
    <line x1="256" y1="426" x2="256" y2="406" stroke-width="4"/>
    <!-- 9 o'clock -->
    <line x1="86" y1="256" x2="106" y2="256" stroke-width="4"/>
    
    <!-- Other hour markers -->
    <line x1="356.5" y1="115.5" x2="346.5" y2="125.5"/>
    <line x1="396.5" y1="155.5" x2="386.5" y2="165.5"/>
    <line x1="396.5" y1="356.5" x2="386.5" y2="346.5"/>
    <line x1="356.5" y1="396.5" x2="346.5" y2="386.5"/>
    <line x1="155.5" y1="396.5" x2="165.5" y2="386.5"/>
    <line x1="115.5" y1="356.5" x2="125.5" y2="346.5"/>
    <line x1="115.5" y1="155.5" x2="125.5" y2="165.5"/>
    <line x1="155.5" y1="115.5" x2="165.5" y2="125.5"/>
  </g>
  
  <!-- Clock Hands -->
  <!-- Hour Hand pointing to 2 -->
  <line x1="256" y1="256" x2="300" y2="200" stroke="#F58D04" stroke-width="8" stroke-linecap="round"/>
  <!-- Minute Hand pointing to 15 minutes -->
  <line x1="256" y1="256" x2="350" y2="256" stroke="#FF6B35" stroke-width="6" stroke-linecap="round"/>
  
  <!-- Center Dot -->
  <circle cx="256" cy="256" r="12" fill="#333"/>
  
  <!-- Productivity Elements -->
  <!-- Task Checkmark -->
  <g transform="translate(320, 160)" fill="#4CAF50">
    <circle r="16" fill="#E8F5E8"/>
    <path d="M-6,-2 L-2,2 L6,-6" stroke="#4CAF50" stroke-width="3" fill="none" stroke-linecap="round"/>
  </g>
  
  <!-- Time Management Icon -->
  <g transform="translate(180, 160)" fill="#2196F3">
    <circle r="16" fill="#E3F2FD"/>
    <rect x="-8" y="-8" width="16" height="16" rx="2" fill="none" stroke="#2196F3" stroke-width="2"/>
    <line x1="-4" y1="-4" x2="4" y2="4" stroke="#2196F3" stroke-width="2"/>
  </g>
  
  <!-- Goal Target -->
  <g transform="translate(180, 340)" fill="#FF9800">
    <circle r="16" fill="#FFF3E0"/>
    <circle r="10" fill="none" stroke="#FF9800" stroke-width="2"/>
    <circle r="6" fill="none" stroke="#FF9800" stroke-width="2"/>
    <circle r="2" fill="#FF9800"/>
  </g>
  
  <!-- Analytics Chart -->
  <g transform="translate(340, 340)" fill="#9C27B0">
    <circle r="16" fill="#F3E5F5"/>
    <rect x="-8" y="2" width="3" height="8" fill="#9C27B0"/>
    <rect x="-2" y="-2" width="3" height="12" fill="#9C27B0"/>
    <rect x="4" y="0" width="3" height="10" fill="#9C27B0"/>
  </g>
</svg>
